Coordinates
version=1
nRows=28
nColumns=23
inDegrees=yes

Units are S.I. units (second, meters, Newtons, ...)
If the header above contains a line with 'inDegrees', this indicates whether rotational values are in degrees (yes) or radians (no).

endheader
time	pelvis_tilt	pelvis_list	pelvis_rotation	pelvis_tx	pelvis_ty	pelvis_tz	hip_flexion_r	hip_adduction_r	hip_rotation_r	knee_angle_r	knee_angle_r_beta	ankle_angle_r	subtalar_angle_r	mtp_angle_r	hip_flexion_l	hip_adduction_l	hip_rotation_l	knee_angle_l	knee_angle_l_beta	ankle_angle_l	subtalar_angle_l	mtp_angle_l
      0.00000000	    -11.58829617	      7.47701080	      3.54819113	      2.15910532	      0.88261331	      0.97768022	     27.12636667	    -10.69925557	      2.34871094	     89.05048463	      1.55422416	      1.86395831	    -22.78370323	      0.00000000	     30.34637170	     11.79036581	     -3.71568866	     48.13167564	      0.84005621	     24.30778255	    -11.95384336	      0.00000000
      0.00666667	    -11.71952404	      7.14285629	      3.58933854	      2.15826925	      0.88524699	      0.97772252	     28.93437244	    -10.25467126	      2.48809025	     88.74743371	      1.54893492	      2.40794450	    -22.78982419	      0.00000000	     28.80588905	     11.55547538	     -3.20668606	     47.19234569	      0.82366181	     24.51553074	    -11.65209187	      0.00000000
      0.01333333	    -11.86055975	      6.81728187	      3.58572265	      2.15750415	      0.88779625	      0.97782273	     30.69550140	     -9.79782106	      2.63870881	     88.34057033	      1.54183382	      3.08067964	    -22.75305265	      0.00000000	     27.26660457	     11.28535612	     -2.76440790	     46.19606833	      0.80627349	     24.73215403	    -11.37139618	      0.00000000
      0.02000000	    -11.95860738	      6.52413007	      3.48841193	      2.15677303	      0.89045518	      0.97810437	     32.36791382	     -9.27388787	      2.87990361	     87.80702236	      1.53252165	      3.90858123	    -22.61781871	      0.00000000	     25.65444450	     11.01378400	     -2.34877763	     45.09572207	      0.78706883	     24.77738601	    -11.02959789	      0.00000000
      0.02666667	    -11.60187262	      6.29469233	      3.23594816	      2.15659264	      0.89405675	      0.97854609	     33.39745150	     -8.80996136	      3.06883634	     86.97219270	      1.51795112	      4.86856474	    -22.17418067	      0.00000000	     23.41325942	     10.63584680	     -2.26505878	     43.70318293	      0.76276444	     24.53851373	    -10.67678363	      0.00000000
      0.03333333	    -11.33857450	      5.74490074	      3.24433706	      2.15667132	      0.89794867	      0.97865541	     34.28667154	     -8.18037132	      2.78982884	     85.78643230	      1.49725570	      5.51522100	    -22.09773223	      0.00000000	     21.25890355	     10.04388506	     -1.81048981	     42.31516374	      0.73853893	     24.24678518	    -10.20112112	      0.00000000
      0.04000000	    -11.81777858	      5.34318697	      3.22447838	      2.15635541	      0.90092911	      0.97871421	     36.03931142	     -7.68657508	      2.68855457	     84.55172141	      1.47570593	      6.10623659	    -21.95898516	      0.00000000	     20.00297346	      9.62483903	     -1.47554850	     41.00480458	      0.71566885	     23.95807031	     -9.69054758	      0.00000000
      0.04666667	    -11.05949296	      4.56169659	      3.12755716	      2.15726469	      0.90633334	      0.97899473	     36.02321928	     -6.81907419	      2.10675723	     82.64341379	      1.44239968	      6.59897546	    -22.12393497	      0.00000000	     17.17492749	      8.59141293	     -1.32071393	     39.26611357	      0.68532297	     23.03709664	     -8.98262261	      0.00000000
      0.05333333	    -11.43954802	      4.13752241	      2.94523883	      2.15749868	      0.91002887	      0.97927274	     37.41332068	     -6.28135277	      1.89130225	     80.85807311	      1.41123960	      7.15593949	    -22.06589301	      0.00000000	     15.72557282	      7.97469097	     -1.42348289	     37.67618854	      0.65757354	     22.01844476	     -8.32019410	      0.00000000
      0.06000000	    -10.98664174	      3.37389341	      2.74677784	      2.15846156	      0.91545478	      0.97958831	     37.55970324	     -5.41146435	      1.31101618	     78.50020537	      1.37008705	      7.49248102	    -22.26592742	      0.00000000	     13.23035911	      6.94770235	     -1.46330917	     35.79243350	      0.62469581	     20.85709238	     -7.62637099	      0.00000000
      0.06666667	    -10.97245089	      2.68077646	      2.59546174	      2.15932505	      0.92025533	      0.97977046	     38.12529748	     -4.70459659	      0.66523132	     76.01897722	      1.32678145	      7.88048930	    -22.32289059	      0.00000000	     11.29941775	      5.99515917	     -1.66259488	     34.01140037	      0.59361092	     19.46808254	     -6.77957826	      0.00000000
      0.07333333	    -11.63895067	      2.31733762	      2.29324203	      2.15977621	      0.92391745	      0.98010161	     39.51000435	     -4.25976133	      0.29639991	     73.57928673	      1.28420081	      8.34129131	    -22.16289124	      0.00000000	     10.20024144	      5.39932908	     -2.15833226	     32.33111377	      0.56428439	     17.81761420	     -6.01422870	      0.00000000
      0.08000000	    -11.32786017	      1.55260423	      2.02553706	      2.16102632	      0.92931527	      0.98035880	     39.44758869	     -3.44569284	     -0.47974052	     70.54670673	      1.23127231	      8.58411173	    -22.21576611	      0.00000000	      7.89869975	      4.36308036	     -2.53799494	     30.34860826	      0.52968314	     15.98020538	     -5.33324960	      0.00000000
      0.08666667	    -11.71386162	      1.14703079	      1.59966930	      2.16177916	      0.93340201	      0.98083915	     40.23506377	     -2.88805969	     -0.94907306	     67.60289703	      1.17989314	      8.96570186	    -21.94927853	      0.00000000	      6.47542433	      3.71967376	     -3.22142182	     28.54414966	      0.49818939	     13.99611649	     -4.62585068	      0.00000000
      0.09333333	    -12.09941000	      0.70425084	      1.23621429	      2.16259102	      0.93739373	      0.98119286	     40.87106383	     -2.38005601	     -1.62213988	     64.44472402	      1.12477262	      9.30631863	    -21.47065000	      0.00000000	      5.11230093	      3.06760859	     -3.86781699	     26.81878148	      0.46807604	     11.84949720	     -3.96157475	      0.00000000
      0.10000000	    -12.69848501	      0.47569466	      0.70708880	      2.16320138	      0.94080049	      0.98183392	     41.72384600	     -1.91806125	     -2.06005671	     61.24423455	      1.06891354	      9.71639737	    -20.72588869	      0.00000000	      4.04172851	      2.63936446	     -4.73405673	     25.18419595	      0.43954714	      9.64729862	     -3.28475040	      0.00000000
      0.10666667	    -13.39609142	      0.30916510	      0.17668835	      2.16368824	      0.94384981	      0.98255688	     42.59262467	     -1.49022613	     -2.53260680	     57.92142285	      1.01091954	     10.13667522	    -19.66423090	      0.00000000	      3.18963865	      2.28678921	     -5.60729888	     23.73563417	      0.41426497	      7.37823460	     -2.60085228	      0.00000000
      0.11333333	    -13.67688869	     -0.03678680	     -0.14944314	      2.16461167	      0.94738796	      0.98297593	     42.75684135	     -1.10025482	     -3.46484911	     54.32437428	      0.94813920	     10.58482236	    -18.13060281	      0.00000000	      1.86505969	      1.78993975	     -6.17642224	     22.21591887	      0.38774093	      5.02117365	     -1.97078484	      0.00000000
      0.12000000	    -14.63535594	      0.04311868	     -0.71474224	      2.16482706	      0.94945689	      0.98401137	     43.77201821	     -0.74847032	     -3.78686362	     50.87283818	      0.88789853	     10.95690619	    -16.59363059	      0.00000000	      1.52171872	      1.67422667	     -7.10425419	     21.15728811	      0.36926434	      2.74924848	     -1.25880401	      0.00000000
      0.12666667	    -14.67391067	     -0.20585260	     -1.12969761	      2.16584671	      0.95269830	      0.98480503	     43.50381807	     -0.31934905	     -4.74028935	     47.17528287	      0.82336401	     11.79163818	    -13.86208540	      0.00000000	      0.05237572	      1.28840280	     -7.67035125	     19.84972161	      0.34644300	      0.51749261	     -0.62670528	      0.00000000
      0.13333333	    -14.77528228	     -0.48263219	     -1.25778662	      2.16690194	      0.95555381	      0.98541301	     43.17027923	     -0.02275354	     -5.98369275	     43.42137200	      0.75784591	     12.40035918	    -11.01979989	      0.00000000	     -1.18560234	      0.86699562	     -7.82622617	     18.83341149	      0.32870504	     -1.64061734	     -0.02442104	      0.00000000
      0.14000000	    -14.84229354	     -0.71154235	     -1.48927949	      2.16802193	      0.95799932	      0.98630747	     42.76406089	      0.39441452	     -7.07554465	     39.74315568	      0.69364892	     13.17947528	     -7.88308151	      0.00000000	     -2.39254647	      0.48366780	     -8.01390600	     17.97937188	      0.31379924	     -3.54649183	      0.50193425	      0.00000000
      0.14666667	    -14.86776339	     -0.88617446	     -1.68786752	      2.16912285	      0.95999829	      0.98732015	     42.28933631	      0.84152975	     -8.03529040	     36.19923655	      0.63179586	     13.92542018	     -4.72547979	      0.00000000	     -3.51328883	      0.13393118	     -8.10778752	     17.39056083	      0.30352255	     -5.23808974	      1.01365493	      0.00000000
      0.15333333	    -14.68362857	     -1.13552618	     -1.73726961	      2.17037430	      0.96183789	      0.98830677	     41.52607307	      1.31208943	     -9.09519598	     32.78347099	      0.57217951	     14.63683955	     -1.57220570	      0.00000000	     -4.75529697	     -0.29132921	     -7.84686317	     17.01259286	      0.29692576	     -6.70918993	      1.43319898	      0.00000000
      0.16000000	    -14.50660187	     -1.35176301	     -1.79270636	      2.17157603	      0.96309721	      0.98938428	     40.79713256	      1.84570742	     -9.91494079	     29.63562655	      0.51723926	     15.31794905	      1.23775090	      0.00000000	     -5.83765656	     -0.70506751	     -7.52195353	     16.95811040	      0.29597486	     -7.85876380	      1.73653346	      0.00000000
      0.16666667	    -14.31588870	     -1.55760201	     -1.81163319	      2.17271104	      0.96382880	      0.99043735	     40.08489846	      2.41214861	    -10.50046520	     26.79101953	      0.46759150	     15.88632471	      3.50611743	      0.00000000	     -6.75128312	     -1.13163380	     -7.10559673	     17.28167782	      0.30162218	     -8.71425227	      2.00729289	      0.00000000
      0.17333333	    -14.09604564	     -1.75152572	     -1.82748553	      2.17379119	      0.96404512	      0.99145939	     39.39861171	      2.96910351	    -10.93520815	     24.34354892	      0.42487508	     16.40043790	      5.30046449	      0.00000000	     -7.54538204	     -1.54511628	     -6.60212081	     17.91718241	      0.31271383	     -9.35442120	      2.14919754	      0.00000000
      0.18000000	    -14.23935655	     -1.33853412	     -2.03858434	      2.17418659	      0.96296662	      0.99263598	     39.47954252	      3.09127303	    -10.59762901	     22.83157435	      0.39848615	     17.00506214	      6.14190670	      0.00000000	     -7.73827306	     -1.27266714	     -6.05389119	     18.90295284	      0.32991877	     -9.89075555	      2.16007825	      0.00000000
